<svg width="48" height="48" viewBox="0 0 48 48" fill="none" xmlns="http://www.w3.org/2000/svg">
<path fill-rule="evenodd" clip-rule="evenodd" d="M24 1.91364C11.4949 1.91364 1.35449 12.0518 1.35449 24.5591C1.35449 34.5649 7.84312 43.053 16.8409 46.0478C17.9722 46.2578 18.3877 45.5565 18.3877 44.9584C18.3877 44.4184 18.3667 42.6345 18.357 40.7423C12.057 42.1121 10.7276 38.0704 10.7276 38.0704C9.69749 35.4529 8.21324 34.7569 8.21324 34.7569C6.15824 33.3514 8.36812 33.3806 8.36812 33.3806C10.6417 33.54 11.8395 35.7143 11.8395 35.7143C13.8592 39.1755 17.1371 38.175 18.4294 37.5968C18.6326 36.1331 19.2195 35.1338 19.8671 34.5683C14.8372 33.9964 9.54937 32.0543 9.54937 23.3771C9.54937 20.9048 10.4344 18.8846 11.883 17.2984C11.6475 16.7284 10.8724 14.4251 12.102 11.3059C12.102 11.3059 14.0032 10.6973 18.3307 13.6271C20.1375 13.125 22.0751 12.8726 24 12.864C25.9237 12.8726 27.8625 13.1243 29.6726 13.6264C33.9949 10.6965 35.8939 11.3051 35.8939 11.3051C37.1265 14.424 36.3514 16.7276 36.1162 17.2976C37.5682 18.8839 38.4469 20.904 38.4469 23.3764C38.4469 32.0741 33.1492 33.9889 28.1066 34.5499C28.9192 35.2526 29.643 36.6311 29.643 38.7435C29.643 41.7735 29.6167 44.2121 29.6167 44.958C29.6167 45.5606 30.0247 46.2668 31.1722 46.0444C40.1647 43.0466 46.6459 34.5611 46.6459 24.5591C46.6455 12.0525 36.5062 1.91364 24 1.91364Z" fill="black"/>
<path d="M9.9315 34.4273C9.88162 34.5398 9.70462 34.5735 9.54337 34.4966C9.37837 34.4231 9.2865 34.2698 9.33975 34.1569C9.3885 34.0406 9.56587 34.0088 9.72975 34.0864C9.89475 34.1603 9.9885 34.3151 9.93112 34.4276L9.9315 34.4273ZM10.8487 35.4506C10.7411 35.5508 10.53 35.5043 10.3867 35.3456C10.2382 35.1881 10.2105 34.977 10.3204 34.8754C10.4321 34.7756 10.6369 34.8229 10.7854 34.9804C10.9331 35.1401 10.9624 35.3494 10.8491 35.451L10.8487 35.4506ZM11.742 36.7545C11.6032 36.8513 11.376 36.7609 11.2357 36.5595C11.097 36.3578 11.097 36.1159 11.2395 36.0195C11.3794 35.9228 11.6032 36.0101 11.7457 36.2096C11.8837 36.414 11.8837 36.6563 11.742 36.7545ZM12.9649 38.0149C12.8411 38.1518 12.5764 38.115 12.3829 37.9286C12.1852 37.746 12.1301 37.4861 12.2542 37.3496C12.3802 37.2124 12.6461 37.2506 12.8407 37.4359C13.0384 37.6181 13.098 37.8784 12.9656 38.0145L12.9649 38.0149ZM14.6524 38.7465C14.5972 38.9239 14.343 39.0045 14.0861 38.9288C13.83 38.8511 13.6624 38.6438 13.7149 38.4645C13.7674 38.2856 14.0235 38.202 14.2819 38.2826C14.538 38.3599 14.7056 38.5661 14.6524 38.7465ZM16.506 38.8819C16.5124 39.0686 16.2949 39.2231 16.026 39.2269C15.7549 39.2333 15.5355 39.0818 15.5329 38.898C15.5329 38.7094 15.7459 38.5568 16.0166 38.5515C16.2855 38.5466 16.5064 38.6966 16.5064 38.8815L16.506 38.8819ZM18.2302 38.5886C18.2625 38.7705 18.0754 38.9576 17.808 39.0075C17.5455 39.0563 17.3017 38.943 17.268 38.7626C17.2357 38.5759 17.4262 38.3888 17.6887 38.3404C17.9565 38.2943 18.1965 38.4038 18.2302 38.5886Z" fill="black"/>
</svg>
