<svg width="48" height="48" viewBox="0 0 48 48" fill="none" xmlns="http://www.w3.org/2000/svg">
<path d="M43.5 1.12499H4.5C3.61512 1.11598 2.7628 1.45838 2.13007 2.07705C1.49734 2.69572 1.13588 3.54013 1.125 4.42499V43.5825C1.13785 44.466 1.50017 45.3085 2.13269 45.9256C2.7652 46.5426 3.6164 46.884 4.5 46.875H43.5C44.3849 46.882 45.2367 46.5384 45.8691 45.9194C46.5015 45.3003 46.8631 44.4561 46.875 43.5712V4.41374C46.8592 3.53147 46.4958 2.69109 45.8639 2.07526C45.2319 1.45943 44.3824 1.11793 43.5 1.12499ZM14.6887 40.125H7.8975V18.2737H14.6887V40.125ZM11.3138 15.2962C10.5348 15.297 9.77318 15.0667 9.12517 14.6345C8.47716 14.2023 7.9719 13.5876 7.6733 12.8682C7.37471 12.1487 7.2962 11.3569 7.4477 10.5929C7.59921 9.82883 7.97392 9.12688 8.52444 8.57584C9.07496 8.02479 9.77655 7.64941 10.5405 7.49717C11.3044 7.34494 12.0962 7.4227 12.8159 7.72061C13.5357 8.01852 14.1508 8.52319 14.5836 9.17079C15.0165 9.81839 15.2475 10.5798 15.2475 11.3587C15.2465 11.8765 15.1434 12.3889 14.9442 12.8667C14.7449 13.3446 14.4534 13.7784 14.0863 14.1434C13.7192 14.5085 13.2837 14.7975 12.8047 14.994C12.3257 15.1906 11.8127 15.2907 11.295 15.2887L11.3138 15.2962ZM40.125 40.125H33.3337V29.4937C33.3337 26.9625 33.2888 23.7037 29.805 23.7037C26.3213 23.7037 25.7288 26.4637 25.7288 29.3287V40.125H18.9487V18.2737H25.4587V21.2737H25.5487C26.4562 19.5562 28.6688 17.745 31.9725 17.745C38.85 17.73 40.125 22.2562 40.125 28.125V40.125Z" fill="black"/>
</svg>
