<svg width="132" height="132" viewBox="0 0 132 132" fill="none" xmlns="http://www.w3.org/2000/svg">
<path d="M46.7005 26.1106C45.8496 18.1028 49.0515 7.58589 57.0227 3.59613C66.5389 -1.17915 77.2306 6.2296 77.9975 6.77777C79.0778 7.55199 86.6236 13.1297 87.7152 22.3582C88.7843 31.3662 83.3433 40.7981 78.4061 49.3653C75.277 54.7962 72.4221 58.5034 73.8719 62.0071C75.4057 65.7143 80.7068 66.6072 81.0258 66.6524C84.6476 67.2175 87.6368 65.7539 91.7231 63.3408C103.96 56.1186 103.977 53.3608 109.765 51.5411C110.42 51.3376 122.214 47.7887 127.526 54.3667C130.56 58.136 130.885 64.4541 128.047 68.3082C125.925 71.1903 122.679 71.812 116.471 72.9083C109.614 74.112 107.318 73.3209 98.8715 73.9594C90.055 74.6206 83.9143 75.0897 82.9403 78.0622C82.039 80.837 86.0246 84.5611 88.8907 87.2398C91.7567 89.9185 93.4752 90.5797 102.42 96.31C107.492 99.5595 108.248 100.181 109.093 101.396C111.45 104.787 113.011 110.619 110.179 114.332C108.365 116.717 105.466 117.265 103.557 117.632C99.5376 118.395 96.2461 117.203 94.0406 116.411C92.9546 116.021 90.0214 114.959 87.8831 113.077C80.8691 106.957 86.674 96.1631 80.4045 90.5232C77.2082 87.6467 71.9743 87.1042 68.4197 88.8278C64.8652 90.5514 63.4825 94.349 62.5141 97.0447C60.2022 103.447 62.363 105.691 61.1483 112.834C60.4821 116.79 59.0939 124.967 52.7125 128.448C46.8124 131.67 40.2519 128.895 39.9832 128.776C37.4425 127.731 35.2894 125.909 33.8257 123.566C32.5724 121.47 31.9374 119.057 31.9952 116.609C32.0792 113.473 33.3275 111.286 34.6709 108.997C36.75 105.497 39.546 102.485 42.8716 100.164C47.9096 96.6604 49.2754 98.0336 52.8132 94.7446C53.9328 93.7161 58.4613 89.2403 57.4593 84.7024C57.197 83.3621 56.4484 82.169 55.3602 81.3569C53.6081 80.1871 51.4418 80.7013 50.2886 80.9952C44.2543 82.5606 38.5726 85.6123 36.8541 86.5051C30.7357 89.6755 26.3695 91.9303 20.9117 91.5517C14.8157 91.1278 10.4271 87.6241 8.59664 86.183C5.89293 84.0243 3.15003 81.8372 2.27678 78.0057C1.15724 73.2361 3.7266 69.1333 4.77898 67.4323C7.4435 63.143 11.2276 61.1877 14.1104 59.6958C17.3515 58.0004 19.4619 56.9323 22.2999 56.8702C28.6645 56.695 30.1032 61.8263 39.2835 64.5445C42.2727 65.4317 45.8552 66.4885 49.9919 65.347C54.4701 64.1094 59.704 60.2609 60.9299 55.2483C63.337 45.5225 48.2622 40.8151 46.7005 26.1106Z" stroke="#F853FB" stroke-width="4" stroke-miterlimit="10"/>
<path d="M61.5737 73.0665C62.0994 71.5784 63.1857 70.3598 64.5965 69.6758C65.0163 69.4554 67.832 67.9352 70.5301 69.4441C72.7692 70.693 73.2842 73.0948 73.4073 73.869C73.5305 74.6432 73.7712 76.932 72.243 78.7517C70.3733 80.9726 66.718 81.3908 64.1878 79.7124C62.1055 78.3335 60.8236 75.5361 61.5737 73.0665Z" stroke="#F853FB" stroke-width="4" stroke-miterlimit="10"/>
</svg>
