<svg width="132" height="132" viewBox="0 0 132 132" fill="none" xmlns="http://www.w3.org/2000/svg">
<path d="M91.9174 103.741C93.9605 111.442 92.2675 122.155 84.772 127.233C75.8073 133.282 63.8812 127.59 63.026 127.166C61.8093 126.564 53.3324 122.211 50.8588 113.356C48.4483 104.712 52.5806 94.7071 56.3168 85.6172C58.6872 79.8642 61.0402 75.8243 59.0487 72.6157C56.9424 69.2119 51.4327 69.1115 51.1056 69.1115C47.3521 69.1115 44.5342 70.9473 40.7405 73.8991C29.3998 82.7323 29.7843 85.4219 24.1886 88.039C23.5515 88.3403 12.1362 93.5074 5.74839 87.8325C2.11545 84.5961 0.858548 78.4636 3.15998 74.2953C4.88176 71.1649 8.08999 70.088 14.2252 68.1182C21.0033 65.9476 23.4482 66.3884 31.9251 64.5414C40.7635 62.6163 46.9274 61.2715 47.4727 58.2192C47.9835 55.379 43.3863 52.3211 40.0805 50.117C36.7747 47.9129 34.9152 47.5223 25.0208 43.22C19.3963 40.7816 18.5354 40.2849 17.5081 39.2303C14.6385 36.2729 12.1649 30.7933 14.4893 26.7533C15.9815 24.1586 18.8339 23.1988 20.7221 22.5683C24.6879 21.2402 28.1831 21.9266 30.5304 22.3786C31.6783 22.6074 34.8177 23.2212 37.2855 24.7445C45.3205 29.7052 41.016 41.0885 48.1901 45.692C51.8575 48.0412 57.2523 47.8068 60.5983 45.5971C63.9443 43.3874 64.788 39.487 65.3791 36.7137C66.7737 30.1293 64.2312 28.2544 64.4264 21.0896C64.5239 17.1501 64.7191 8.94182 70.6822 4.61171C76.1861 0.610816 83.2511 2.37969 83.5438 2.44665C86.2741 3.10045 88.7248 4.56994 90.5514 6.64842C92.1277 8.51466 93.1233 10.7796 93.421 13.1771C93.7998 16.2573 92.8471 18.5674 91.8255 20.9891C90.2345 24.7114 87.8433 28.0599 84.8122 30.81C80.2208 34.956 78.6368 33.8177 75.5318 37.5451C74.5562 38.7114 70.6133 43.739 72.3006 48.0245C72.7639 49.2989 73.7018 50.3582 74.9292 50.993C76.8748 51.8747 79.0213 51.06 80.1232 50.608C86.0117 48.203 91.3262 44.3974 92.9504 43.2758C98.6897 39.2917 102.782 36.457 108.372 36.0218C114.622 35.5531 119.586 38.3375 121.641 39.487C124.7 41.2057 127.805 42.941 129.257 46.5569C131.07 51.06 129.096 55.4348 128.281 57.2483C126.215 61.8239 122.662 64.2847 119.959 66.1764C116.918 68.2856 114.937 69.6527 112.068 70.1438C105.64 71.2598 103.425 66.4275 93.7023 65.1217C90.5399 64.6921 86.7463 64.1787 82.7174 65.8973C78.3728 67.7499 73.6207 72.2642 73.1156 77.342C72.1744 87.1908 88.1582 89.6014 91.9174 103.741Z" stroke="#3B6CB5" stroke-width="4" stroke-miterlimit="10"/>
<path d="M69.8902 60.0271C69.5749 61.5532 68.653 62.8967 67.3248 63.7658C66.9345 64.0448 64.2945 65.9364 61.3387 64.8818C58.8996 63.9834 58.01 61.7123 57.7689 60.9757C57.5279 60.2392 56.9425 58.0406 58.2281 56.0374C59.7949 53.5933 63.445 52.6559 66.263 53.9337C68.5759 54.9605 70.2977 57.5105 69.8902 60.0271Z" stroke="#3B6CB5" stroke-width="4" stroke-miterlimit="10"/>
</svg>
