<svg width="132" height="132" viewBox="0 0 132 132" fill="none" xmlns="http://www.w3.org/2000/svg">
<path d="M95.9812 18.0724C102.547 12.6062 113.526 9.56241 121.361 14.8655C130.739 21.2104 130.035 35.7013 129.959 36.7619C129.872 38.2492 129.074 48.6859 121.559 55.0998C114.23 61.3757 102.99 61.6204 92.7854 61.8715C86.3181 62.0346 81.5039 61.4573 79.2162 64.8776C76.7946 68.4987 78.8961 74.078 79.0241 74.4106C80.5027 78.1761 83.4075 80.2095 87.7559 82.7135C100.755 90.2445 103.176 88.6379 107.92 93.1063C108.462 93.6146 117.979 102.828 115.075 111.739C113.416 116.823 108.037 120.802 103.118 120.331C99.4331 119.973 97.1221 117.231 92.7854 111.934C87.9945 106.078 87.4474 103.424 82.3073 95.717C76.9343 87.6777 73.1913 82.0796 70.0479 82.8767C67.1373 83.6235 66.0138 89.5981 65.2164 93.8908C64.4189 98.1834 64.7798 100.211 64.6342 112.091C64.5353 118.818 64.4014 119.904 63.8018 121.41C62.1137 125.628 57.8351 130.504 53.0327 129.958C49.9533 129.607 47.8926 127.159 46.5363 125.565C43.6781 122.17 42.9388 118.329 42.4614 115.787C42.217 114.532 41.5592 111.099 42.0365 107.949C43.5966 97.6876 56.2285 96.9722 57.7536 87.7091C58.5395 82.9834 56.1703 77.6677 52.7183 75.2766C49.2664 72.8855 45.1857 73.7642 42.2926 74.398C35.4178 75.9042 34.6203 79.2681 27.6873 82.2616C23.8687 83.9059 15.917 87.3388 9.38562 83.2595C3.35491 79.494 2.2256 71.6116 2.17903 71.2789C1.71835 68.2458 2.15202 65.1332 3.41894 62.3798C4.5767 59.964 6.34976 57.9545 8.52991 56.5872C11.3299 54.8488 13.9261 54.7735 16.6795 54.7045C20.8867 54.6617 25.0541 55.5859 28.904 57.4156C34.7251 60.1833 34.2478 62.2982 39.0619 63.773C40.5696 64.2374 46.967 65.9759 50.4015 62.3861C51.4423 61.3619 52.0866 59.9523 52.2061 58.4386C52.2759 56.0851 50.6402 54.2903 49.767 53.3803C45.1101 48.5228 39.3413 44.864 37.6182 43.728C31.506 39.7115 27.1402 36.8246 24.5206 31.4149C21.581 25.3461 22.2737 19.1205 22.5531 16.5474C22.978 12.7129 23.4088 8.82186 26.2961 5.76553C29.8936 1.94983 34.8765 2.00003 36.9488 2.00003C42.1587 2.05652 45.9367 4.54175 48.8123 6.43077C52.0431 8.55828 54.1445 9.93896 55.757 12.6062C59.3719 18.5871 55.6464 22.9425 58.2484 33.3164C59.0983 36.6866 60.117 40.7345 63.371 44.023C66.8637 47.5751 73.1098 50.349 78.1801 48.6169C87.9771 45.2342 83.9139 28.1012 95.9812 18.0724Z" stroke="#2AD766" stroke-width="4" stroke-miterlimit="10"/>
<path d="M62.8239 59.5494C63.6113 59.3701 64.4238 59.3598 65.2149 59.5191C66.0059 59.6785 66.7601 60.0044 67.4343 60.4783C67.8592 60.7418 70.7291 62.5556 70.863 66.0135C70.9794 68.8628 69.1574 70.7581 68.5345 71.3292C67.9116 71.9003 66.0489 73.4567 63.6156 73.0487C60.6468 72.5529 58.2951 69.2832 58.3766 65.9131C58.493 63.1078 60.251 60.2586 62.8239 59.5494Z" stroke="#2AD766" stroke-width="4" stroke-miterlimit="10"/>
</svg>
