<svg width="132" height="132" viewBox="0 0 132 132" fill="none" xmlns="http://www.w3.org/2000/svg">
<path d="M13.0589 47.4707C6.04321 42.2666 -0.0102733 31.8955 2.6328 22.4228C5.78744 11.0853 19.5083 7.79561 20.507 7.55399C21.9199 7.23803 31.8832 5.16257 40.0499 11.0667C48.0157 16.8284 51.5723 28.2341 54.7939 38.5927C56.8402 45.1536 57.711 50.2338 61.566 51.603C65.6524 53.0774 70.2382 49.385 70.5123 49.162C73.606 46.6033 74.623 43.0782 75.6888 37.9484C78.8678 22.5963 76.6815 20.558 79.4585 14.4742C79.7691 13.7803 85.5486 1.50732 94.7141 2.01534C99.9393 2.30033 105.219 6.69284 106.218 11.8536C106.973 15.7195 105.098 18.8357 101.431 24.7275C97.3754 31.245 95.0673 32.5399 89.4036 39.9309C83.484 47.6441 79.3672 53.0217 81.0298 56.0388C82.5888 58.8206 88.4718 58.3002 92.7104 57.8975C96.9491 57.4948 98.7213 56.6026 109.836 53.4864C116.133 51.7207 117.186 51.5658 118.764 51.7578C123.185 52.3154 128.983 55.3388 129.884 60.3942C130.456 63.6405 128.782 66.4222 127.673 68.2561C125.341 72.1158 121.985 73.931 119.756 75.1391C118.648 75.7586 115.658 77.357 112.582 77.7412C102.564 78.9802 98.1976 66.2798 89.1112 67.2586C84.4767 67.7604 80.2198 71.6511 79.0018 75.8454C77.7838 80.0396 79.8057 83.9551 81.2429 86.7368C84.6655 93.3411 88.0333 93.2296 92.8505 99.4869C95.5058 102.931 101.029 110.106 99.1415 117.906C97.3997 125.111 90.3901 128.438 90.0978 128.58C87.4068 129.889 84.3805 130.307 81.4439 129.776C78.852 129.275 76.4542 128.033 74.5317 126.195C72.0957 123.81 71.2613 121.183 70.4148 118.389C69.142 114.106 68.7828 109.597 69.3613 105.162C70.2382 98.4708 72.3393 98.3469 72.3027 93.0189C72.3027 91.3524 72.0409 84.3454 67.6865 81.8177C66.4246 81.0429 64.9231 80.7776 63.4783 81.0743C61.2676 81.6504 60.0801 83.8188 59.4832 84.965C56.3225 91.0612 54.6112 97.9752 54.057 100.044C52.1082 107.392 50.7197 112.633 46.4262 116.828C41.6334 121.511 35.6286 122.527 33.1499 122.949C29.4533 123.568 25.7079 124.188 22.0052 122.112C17.4011 119.492 15.9882 114.387 15.3975 112.268C13.9237 106.927 15.1295 102.355 16.0491 98.9169C17.0784 95.0262 17.7483 92.4985 19.7641 90.1133C24.2768 84.7667 29.4228 87.3687 38.3021 81.8487C41.1949 80.0458 44.6662 77.8899 46.7733 73.6584C49.051 69.0863 49.8184 61.9554 46.7124 57.2531C40.7077 48.1335 25.9333 57.0177 13.0589 47.4707Z" stroke="#6ECBD8" stroke-width="4" stroke-miterlimit="10"/>
<path d="M61.4078 69.8669C60.6087 68.345 60.4336 66.5634 60.9206 64.9106C61.0485 64.4088 61.895 60.9766 65.074 59.88C67.6927 58.9755 69.9948 60.3074 70.7073 60.7783C71.4198 61.2491 73.4174 62.736 73.7523 65.3319C74.1543 68.5039 71.8157 71.806 68.6306 72.6362C66.0058 73.3363 62.8329 72.3017 61.4078 69.8669Z" stroke="#6ECBD8" stroke-width="4" stroke-miterlimit="10"/>
</svg>
