<svg width="132" height="132" viewBox="0 0 132 132" fill="none" xmlns="http://www.w3.org/2000/svg">
<path d="M120.7 91.2052C127.352 97.0868 132.469 107.988 128.743 117.072C124.287 127.942 109.861 129.741 108.791 129.851C107.306 130.018 96.8328 131.015 89.0787 124.309C81.5259 117.768 79.065 106.116 76.8558 95.5348C75.4522 88.8279 75.0998 83.7161 71.2856 81.9363C67.2449 80.0455 62.1342 83.205 61.8447 83.3959C58.3956 85.5946 56.9668 88.9757 55.3304 93.9335C50.4274 108.77 52.454 111.024 48.9546 116.721C48.5581 117.374 41.2948 128.891 31.9609 127.425C26.6236 126.581 21.6639 121.679 21.1856 116.475C20.8268 112.576 23.0738 109.7 27.4796 104.256C32.3385 98.2447 34.8498 97.21 41.4648 90.5031C48.3881 83.5006 53.1716 78.6228 51.7806 75.488C50.4777 72.5688 44.3726 72.4641 39.9794 72.4086C35.5862 72.3532 33.6854 73.0245 21.9031 74.9522C15.2126 76.03 14.1175 76.0731 12.5314 75.7097C8.04377 74.6935 2.40437 71.0907 2.02044 65.9912C1.77497 62.7271 3.79534 60.1527 5.12966 58.459C7.93677 54.8931 11.581 53.4458 13.9916 52.4912C15.2 52.017 18.4414 50.7298 21.645 50.6805C32.0427 50.5142 35.1897 63.54 44.6306 63.5339C49.4455 63.5339 54.2352 60.1342 55.9598 56.1433C57.6843 52.1525 55.9976 48.0384 54.8143 45.1376C52.0072 38.2398 48.5203 37.9996 44.2467 31.305C41.8865 27.6098 36.9709 19.9359 39.7402 12.4222C42.3019 5.48129 49.8609 2.93159 50.1756 2.83305C53.0817 1.82393 56.2374 1.72918 59.2012 2.56207C61.8062 3.3484 64.1288 4.84364 65.898 6.8732C68.1512 9.49068 68.724 12.1759 69.2967 15.0274C70.1505 19.3973 70.0389 23.8953 68.9694 28.2195C67.3582 34.7416 65.193 34.6369 64.6518 39.9211C64.4818 41.5778 64.0224 48.5434 68.2016 51.4873C69.4158 52.3898 70.9317 52.8139 72.45 52.676C74.7851 52.3372 76.2264 50.3171 76.9691 49.2517C80.865 43.5548 83.37 36.9341 84.1568 34.914C86.945 27.8561 88.9276 22.8244 93.7866 19.1353C99.212 15.0151 105.487 14.6456 108.08 14.4916C111.951 14.2637 115.872 14.0358 119.447 16.5055C123.903 19.5849 124.81 24.7767 125.187 26.9384C126.138 32.3705 124.413 36.737 123.104 40.0628C121.625 43.8011 120.668 46.2215 118.339 48.3771C113.134 53.1809 108.118 50.0585 98.4063 54.579C95.2594 56.0509 91.4452 57.8185 88.8269 61.7786C86.0009 66.0897 84.4526 73.0245 87.1464 77.9946C92.3452 87.6146 108.477 80.3966 120.7 91.2052Z" stroke="#E9E611" stroke-width="4" stroke-miterlimit="10"/>
<path d="M73.3877 63.928C74.057 65.5178 74.057 67.3021 73.3877 68.8919C73.2052 69.3785 71.9653 72.6858 68.5791 73.431C65.7972 74.0469 63.5439 72.4825 62.9145 71.9405C62.2851 71.3986 60.334 69.7173 60.2711 67.1183C60.1892 63.9403 62.946 60.9225 66.3133 60.4421C69.0386 60.0172 72.1856 61.3721 73.3877 63.928Z" stroke="#E9E611" stroke-width="4" stroke-miterlimit="10"/>
</svg>
